<svg xmlns="http://www.w3.org/2000/svg" aria-hidden="true" role="img" width="20" height="20" viewBox="0 0 20 20"><defs xmlns="http://www.w3.org/2000/svg"><radialGradient id="gradient-fill" cx="0" cy="-0.2" r="2.5"><stop offset="0" stop-color="#04ff00" /><stop offset="0.09" stop-color="#00ff86" /><stop offset="0.18" stop-color="#00efff" /><stop offset="0.27" stop-color="#0065ff" /><stop offset="0.36" stop-color="#2400ff" /><stop offset="0.45" stop-color="#ae00ff" /><stop offset="0.55" stop-color="#ff00c7" /><stop offset="0.64" stop-color="#ff003d" /><stop offset="0.73" stop-color="#ff4c00" /><stop offset="0.82" stop-color="#ffd600" /><stop offset="0.91" stop-color="#9fff00" /><stop offset="1" stop-color="#15ff00" /></radialGradient> </defs> <path fill="url(#gradient-fill)" d="M0 0 0 20 20 20 20 0 15 0 15 5 20 5 20 7 12 7 12 12 17 12 17 7 20 7 20 15 15 15 15 20 11 20 11 13 6 13 6 18 11 18 11 20 5 20 5 15 0 15 0 11 7 11 7 6 2 6 2 11 0 11 0 0 5 0 5 5 0 5 0 0 9 0 9 6 14 6 14 1 9 1 9 0"></path></svg>
